<!-- Generated by IcoMoon.io -->
<svg version="1.1" xmlns="http://www.w3.org/2000/svg" width="28" height="32" viewBox="0 0 28 32">
<title>claw-point</title>
<path d="M26.455 27.224h-8.662v-22.447h3.389v8.879c-1.018 0.237-1.783 1.198-1.783 2.344 0 1.324 1.019 2.401 2.271 2.401s2.271-1.077 2.271-2.401c0-1.147-0.764-2.108-1.783-2.344v-8.879h2.977c0.852 0 1.545-0.733 1.545-1.633v-1.51c0-0.9-0.693-1.633-1.545-1.633h-22.27c-0.852 0-1.545 0.733-1.545 1.633v1.51c0 0.9 0.693 1.633 1.545 1.633h7.342v22.448h-8.662c-0.852 0-1.545 0.732-1.545 1.633v1.51c0 0.901 0.693 1.633 1.545 1.633h24.911c0.852 0 1.545-0.733 1.545-1.633v-1.51c0-0.9-0.693-1.633-1.545-1.633zM22.965 16c0 0.755-0.581 1.369-1.295 1.369s-1.295-0.614-1.295-1.369c0-0.755 0.581-1.369 1.295-1.369s1.295 0.614 1.295 1.369zM2.865 3.143v-1.51c0-0.331 0.478-0.445 0.791-0.445h21.151c0.313 0 0.568 0.114 0.568 0.445v1.51c0 0.331-0.255 0.419-0.568 0.419h-21.151c-0.313 0-0.791-0.088-0.791-0.419zM11.469 23.56h0.547c0 0 0.488-0.231 0.488-0.516s-0.219-0.516-0.488-0.516h-0.547v-3.664h5.151c0.27 0 1.919-0.293 0.623-0.578 1.296-0.285-0.354-0.454-0.623-0.454h-5.151v-3.664h4.516c0.27 0-0.488-0.231-0.488-0.516s0.758-0.516 0.488-0.516h-4.516v-8.36l5.151-0v3.664h-5.577c-0.27 0 0-0.054 0 0.231 0 0.801-0.285 0.801-0.285 0.801l5.863-0v3.664l-0.636 0c-0.27 0-0.488 0.231-0.488 0.516s0.219 0.516 0.488 0.516l0.636-0v8.36h-4.604c-0.27 0 0.488 0.231 0.488 0.516s-0.758 0.516-0.488 0.516h4.604v3.664l-5.151 0v-3.664zM26.806 30.367c0 0.331-0.493 0.414-0.806 0.414h-24.182c-0.313 0-0.568-0.083-0.568-0.414v-1.51c0-0.331 0.255-0.419 0.568-0.419h24.419c0.313 0 0.568 0.088 0.568 0.419l0 1.51z"></path>
</svg>
