<!-- Generated by IcoMoon.io -->
<svg version="1.1" xmlns="http://www.w3.org/2000/svg" width="32" height="32" viewBox="0 0 32 32">
<title>clew</title>
<path d="M29.055 26.108h-8.073c4.182-2.422 7.001-6.946 7.001-12.117 0-7.715-6.277-13.992-13.992-13.992s-13.992 6.277-13.992 13.992c0 7.715 6.277 13.992 13.992 13.992h15.063c0.59 0 1.070 0.48 1.070 1.072s-0.478 1.070-1.070 1.070h-13.055c-0.518 0-0.938 0.42-0.938 0.937s0.42 0.938 0.938 0.938h13.055c1.61 0 2.945-1.3 2.945-2.947 0-1.624-1.321-2.945-2.945-2.945zM13.992 26.108c-0.524 0-1.041-0.034-1.548-0.099l10.245-5.915 1.293 0.746c-2.186 3.179-5.848 5.267-9.989 5.267zM7.196 24.018l11.144-6.434 2.473 1.428-11.002 6.352c-0.93-0.343-1.807-0.797-2.615-1.346zM6.233 4.693c0.753-0.629 1.583-1.169 2.473-1.603v12.871l-2.473 1.428v-12.696zM10.581 2.365c0.794-0.233 1.621-0.388 2.473-0.454v11.539l-2.473 1.428v-12.514zM26.108 13.992c0 0.294-0.011 0.585-0.032 0.874l-11.147-6.436v-2.856l11.002 6.352c0.116 0.672 0.177 1.362 0.177 2.066zM14.929 10.595l10.837 6.257c-0.2 0.825-0.485 1.618-0.845 2.368l-9.992-5.769v-2.856zM25.172 9.323l-10.243-5.914v-1.498c4.622 0.355 8.526 3.316 10.243 7.412zM4.358 6.652v11.819l-1.296 0.748c-0.76-1.584-1.187-3.357-1.187-5.228 0-2.757 0.926-5.301 2.483-7.339zM4.003 20.841l9.989-5.767 2.473 1.428-10.832 6.254c-0.607-0.579-1.154-1.221-1.63-1.914z"></path>
</svg>
