<!-- Generated by IcoMoon.io -->
<svg version="1.1" xmlns="http://www.w3.org/2000/svg" width="32" height="32" viewBox="0 0 32 32">
<title>empty-room</title>
<path d="M32 16c0 4.274-1.664 8.292-4.686 11.314s-7.040 4.686-11.314 4.686c-2.992 0-5.858-0.817-8.345-2.343l1.834-1.834c1.932 1.068 4.151 1.677 6.511 1.677 7.444 0 13.5-6.056 13.5-13.5 0-2.359-0.609-4.579-1.677-6.51l1.834-1.834c1.526 2.487 2.343 5.353 2.343 8.345zM1.821 31.946l-1.768-1.768 3.783-3.783c-2.482-2.895-3.837-6.541-3.837-10.396 0-4.274 1.664-8.292 4.686-11.314s7.040-4.686 11.314-4.686c3.854 0 7.5 1.354 10.396 3.837l3.783-3.783 1.768 1.768-30.125 30.125zM5.616 24.616l19.001-19.001c-2.339-1.945-5.344-3.116-8.616-3.116-7.444 0-13.5 6.056-13.5 13.5 0 3.273 1.171 6.277 3.116 8.616z"></path>
</svg>
