<!-- Generated by IcoMoon.io -->
<svg version="1.1" xmlns="http://www.w3.org/2000/svg" width="103" height="32" viewBox="0 0 103 32">
<title>fish</title>
<path d="M78.587 11.031c1.959 2.338 1.522 8.379-0.677 10.052-1.223-3.455-0.793-6.734 0.677-10.052zM69.767 24.84c-1.801-3.808-1.006-14.674 0.467-17.452 2.899 3.856 2.681 13.076-0.467 17.452zM19.286 9.294c2.442-0.005 4.161 1.75 4.162 4.249 0.002 2.461-1.798 4.308-4.171 4.279-2.378-0.027-4.064-1.781-4.079-4.235-0.017-2.546 1.644-4.287 4.088-4.293zM60.52 4.164c4.849 6.518 3.817 19.007-0.641 23.705 0.215-7.896 0.424-15.676 0.641-23.705zM32.659 2.591c5.908 8.56 4.272 21.074-0.626 26.306 1.273-8.908 0.957-17.602 0.626-26.306zM49.662 29.341c1.595-8.954 1.69-17.819 1.668-26.956 4.83 6.744 4.37 21.111-1.668 26.956zM41.136 29.593c0.834-9.128 2.346-18.245 0.621-27.436 6.079 6.767 5.253 19.617-0.621 27.436zM95.41 16.558c2.808-1.725 4.933-3.965 6.353-6.815 1.869-3.763 0.44-6.18-3.749-6.548-2.243-0.198-4.335 0.303-6.211 1.445-1.723 1.048-3.31 2.324-4.945 3.516-0.436 0.318-0.827 0.696-1.248 1.037-1.695 1.365-3.462 1.553-5.473 0.608-3.662-1.72-7.311-3.507-11.097-4.917-8.003-2.979-16.348-4.405-24.871-4.796-12.92-0.596-25.273 1.845-37.090 7.031-1.865 0.819-3.56 2.040-5.304 3.125-0.419 0.259-0.754 0.682-1.057 1.082-1.016 1.327-0.978 2.696 0.274 3.803 9.568 8.474 20.174 14.909 33.18 16.353 12.607 1.397 24.889 0.050 36.622-4.998 3.217-1.381 6.304-3.074 9.444-4.635 0.998-0.496 1.991-1.005 2.956-1.557 0.587-0.337 0.851-0.157 1.196 0.376 0.956 1.471 1.884 2.981 3.017 4.308 2.249 2.634 5.141 3.642 8.558 2.848 2.418-0.56 3.487-2.224 3.087-4.66-0.431-2.605-1.834-4.686-3.641-6.607z"></path>
</svg>
