<!-- Generated by IcoMoon.io -->
<svg version="1.1" xmlns="http://www.w3.org/2000/svg" width="32" height="32" viewBox="0 0 32 32">
<title>house</title>
<path d="M31.725 14.333l-13.348-13.348c-0.635-0.635-1.479-0.985-2.377-0.985s-1.743 0.35-2.377 0.985l-13.348 13.348c-0.176 0.176-0.275 0.414-0.275 0.663s0.099 0.487 0.275 0.663c0 0 0.451 0.451 1.004 1.004 1.061 1.061 2.522 1.312 3.742 0.953v13.447c0 0.518 0.42 0.938 0.938 0.938h20.083c0.518 0 0.937-0.42 0.937-0.938v-13.447c1.219 0.359 2.681 0.108 3.742-0.953 0.553-0.553 1.004-1.004 1.004-1.004 0.176-0.176 0.275-0.414 0.275-0.663s-0.099-0.487-0.275-0.663zM25.104 16.388v9.72h-4.15v-6.092c0-2.736-2.213-4.954-4.954-4.954-2.737 0-4.954 2.213-4.954 4.954v6.092h-4.15v-9.72l9.104-9.104 9.104 9.104zM6.896 27.983h4.15v2.142h-4.15v-2.142zM12.921 30.125v-10.108c0-1.697 1.372-3.079 3.079-3.079 1.701 0 3.079 1.375 3.079 3.079v10.108h-6.158zM20.954 30.125v-2.142h4.15v2.142h-4.15zM29.395 15.337c-0.742 0.743-1.946 0.744-2.69 0-0.006-0.006-0.012-0.012-0.018-0.018l-10.024-10.024c-0.366-0.366-0.96-0.366-1.326 0l-10.024 10.024c-0.006 0.006-0.012 0.012-0.018 0.018-0.743 0.743-1.946 0.744-2.69 0-0.12-0.12-0.235-0.235-0.341-0.342l12.686-12.686c0.579-0.58 1.521-0.581 2.102 0l12.685 12.685c-0.107 0.107-0.222 0.222-0.342 0.342z"></path>
</svg>
