<!-- Generated by IcoMoon.io -->
<svg version="1.1" xmlns="http://www.w3.org/2000/svg" width="37" height="32" viewBox="0 0 37 32">
<title>paw</title>
<path d="M29.201 11.844c-4.977 2.855-4.13 11.187 1.269 11.187 2.329 0 4.344-1.751 5.241-3.988 2.072-5.169-2.237-9.65-6.51-7.199z"></path>
<path d="M24.088 12.876c5.972 0 7.76-10.141 2.086-11.808-2.585-0.759-5.524 1.063-6.468 4.393-1.059 3.733 1.025 7.415 4.382 7.415z"></path>
<path d="M22.552 30.927c-0.829-0.229-2.301-0.377-3.842-0.398-1.629-0.024-3.334 0.093-4.437 0.398-2.98 0.83-7.034-1.178-6.145-5.349 0.823-3.856 3.779-3.636 4.478-7.29 0.704-3.693 3.442-5.475 6.103-5.336 2.463 0.129 4.86 1.905 5.513 5.337 0.695 3.657 3.645 3.435 4.467 7.289 0.893 4.174-3.17 6.172-6.138 5.349z"></path>
<path d="M13.577 12.876c1.689 0 3.14-0.981 3.946-2.483 2.396-4.465-1.539-10.646-6.033-9.322-5.683 1.672-3.882 11.805 2.087 11.805z"></path>
<path d="M10.878 19.711c1.918-4.692-2.628-10.423-6.969-8.619-5.229 2.172-2.923 11.539 2.827 11.539 1.845 0 3.413-1.136 4.142-2.919z"></path>
<path d="M22.552 30.927c-0.829-0.229-2.301-0.377-3.842-0.398v-17.577c2.463 0.129 4.86 1.905 5.513 5.337 0.695 3.657 3.645 3.435 4.467 7.289 0.893 4.174-3.17 6.171-6.138 5.349z"></path>
</svg>
