<!-- Generated by IcoMoon.io -->
<svg version="1.1" xmlns="http://www.w3.org/2000/svg" width="43" height="32" viewBox="0 0 43 32">
<title>sofa</title>
<path d="M42.654 8.966c-0.246-5.028-4.101-8.966-8.775-8.966h-25.093c-4.674 0-8.528 3.938-8.774 8.966-0.008 0.166-0.013 18.706-0.013 18.706 0 2.386 1.8 4.327 4.013 4.327h34.641c2.213 0 4.013-1.941 4.013-4.327 0 0-0.004-18.539-0.012-18.706zM8.787 2h25.093c3.354 0 6.173 2.57 6.802 6.019h-1.908c-0.598-2.36-2.577-4.019-4.893-4.019h-12.152c-0.512 0 0.928 0.448 0.928 1s-1.44 1-0.928 1h12.152c1.29 0 2.414 0.81 2.927 2.019h-0.923c-2.313 0-4.21 1.958-4.34 4.418-3.242-1.103-6.726-1.655-10.21-1.655s-6.968 0.552-10.21 1.655c-0.13-2.46-2.027-4.417-4.341-4.417h-0.923c0.513-1.209 1.638-2.019 2.927-2.019h12.941c0.512 0 0.928-0.448 0.928-1s-0.415-1-0.928-1h-12.941c-2.317 0-4.296 1.659-4.893 4.019h-1.907c0.628-3.449 3.447-6.019 6.801-6.019zM31.536 14.538v3.396c0 1.482-1.118 2.687-2.493 2.687h-15.42c-1.374 0-2.492-1.205-2.492-2.687v-3.396c6.438-2.347 13.967-2.347 20.406 0zM40.812 27.673c0 1.283-0.968 2.327-2.158 2.327h-34.641c-1.19 0-2.157-1.044-2.157-2.327v-17.654h4.927c1.375 0 2.493 1.205 2.493 2.687v5.228c0 2.585 1.95 4.687 4.347 4.687h16.854c1.067 0 2.915-1.264 2.915-4.687v-5.228c0-1.482 1.118-2.687 2.492-2.687h4.928l0 17.654z"></path>
</svg>
