<svg aria-hidden="true" style="position: absolute; width: 0; height: 0; overflow: hidden;" version="1.1" xmlns="http://www.w3.org/2000/svg" xmlns:xlink="http://www.w3.org/1999/xlink">
<defs>
<symbol id="icon-facebook" viewBox="0 0 32 32">
<path d="M31.997 15.999c0-8.836-7.163-15.999-15.999-15.999s-15.999 7.163-15.999 15.999c0 7.985 5.851 14.604 13.499 15.804v-11.18h-4.062v-4.625h4.062v-3.525c0-4.010 2.389-6.225 6.043-6.225 1.75 0 3.581 0.313 3.581 0.313v3.937h-2.017c-1.987 0-2.607 1.233-2.607 2.498v3.001h4.437l-0.709 4.625h-3.728v11.18c7.649-1.2 13.499-7.819 13.499-15.804z"></path>
</symbol>
<symbol id="icon-paw" viewBox="0 0 37 32">
<path d="M29.201 11.844c-4.977 2.855-4.13 11.187 1.269 11.187 2.329 0 4.344-1.751 5.241-3.988 2.072-5.169-2.237-9.65-6.51-7.199z"></path>
<path d="M24.088 12.876c5.972 0 7.76-10.141 2.086-11.808-2.585-0.759-5.524 1.063-6.468 4.393-1.059 3.733 1.025 7.415 4.382 7.415z"></path>
<path d="M22.552 30.927c-0.829-0.229-2.301-0.377-3.842-0.398-1.629-0.024-3.334 0.093-4.437 0.398-2.98 0.83-7.034-1.178-6.145-5.349 0.823-3.856 3.779-3.636 4.478-7.29 0.704-3.693 3.442-5.475 6.103-5.336 2.463 0.129 4.86 1.905 5.513 5.337 0.695 3.657 3.645 3.435 4.467 7.289 0.893 4.174-3.17 6.172-6.138 5.349z"></path>
<path d="M13.577 12.876c1.689 0 3.14-0.981 3.946-2.483 2.396-4.465-1.539-10.646-6.033-9.322-5.683 1.672-3.882 11.805 2.087 11.805z"></path>
<path d="M10.878 19.711c1.918-4.692-2.628-10.423-6.969-8.619-5.229 2.172-2.923 11.539 2.827 11.539 1.845 0 3.413-1.136 4.142-2.919z"></path>
<path d="M22.552 30.927c-0.829-0.229-2.301-0.377-3.842-0.398v-17.577c2.463 0.129 4.86 1.905 5.513 5.337 0.695 3.657 3.645 3.435 4.467 7.289 0.893 4.174-3.17 6.171-6.138 5.349z"></path>
</symbol>
<symbol id="icon-cheveron-up" viewBox="0 0 56 32">
<path stroke-linejoin="round" stroke-linecap="round" stroke-miterlimit="4" stroke-width="8" d="M52 28l-24-24-24 24"></path>
</symbol>
<symbol id="icon-fish" viewBox="0 0 103 32">
<path d="M78.587 11.031c1.959 2.338 1.522 8.379-0.677 10.052-1.223-3.455-0.793-6.734 0.677-10.052zM69.767 24.84c-1.801-3.808-1.006-14.674 0.467-17.452 2.899 3.856 2.681 13.076-0.467 17.452zM19.286 9.294c2.442-0.005 4.161 1.75 4.162 4.249 0.002 2.461-1.798 4.308-4.171 4.279-2.378-0.027-4.064-1.781-4.079-4.235-0.017-2.546 1.644-4.287 4.088-4.293zM60.52 4.164c4.849 6.518 3.817 19.007-0.641 23.705 0.215-7.896 0.424-15.676 0.641-23.705zM32.659 2.591c5.908 8.56 4.272 21.074-0.626 26.306 1.273-8.908 0.957-17.602 0.626-26.306zM49.662 29.341c1.595-8.954 1.69-17.819 1.668-26.956 4.83 6.744 4.37 21.111-1.668 26.956zM41.136 29.593c0.834-9.128 2.346-18.245 0.621-27.436 6.079 6.767 5.253 19.617-0.621 27.436zM95.41 16.558c2.808-1.725 4.933-3.965 6.353-6.815 1.869-3.763 0.44-6.18-3.749-6.548-2.243-0.198-4.335 0.303-6.211 1.445-1.723 1.048-3.31 2.324-4.945 3.516-0.436 0.318-0.827 0.696-1.248 1.037-1.695 1.365-3.462 1.553-5.473 0.608-3.662-1.72-7.311-3.507-11.097-4.917-8.003-2.979-16.348-4.405-24.871-4.796-12.92-0.596-25.273 1.845-37.090 7.031-1.865 0.819-3.56 2.040-5.304 3.125-0.419 0.259-0.754 0.682-1.057 1.082-1.016 1.327-0.978 2.696 0.274 3.803 9.568 8.474 20.174 14.909 33.18 16.353 12.607 1.397 24.889 0.050 36.622-4.998 3.217-1.381 6.304-3.074 9.444-4.635 0.998-0.496 1.991-1.005 2.956-1.557 0.587-0.337 0.851-0.157 1.196 0.376 0.956 1.471 1.884 2.981 3.017 4.308 2.249 2.634 5.141 3.642 8.558 2.848 2.418-0.56 3.487-2.224 3.087-4.66-0.431-2.605-1.834-4.686-3.641-6.607z"></path>
</symbol>
<symbol id="icon-sofa" viewBox="0 0 43 32">
<path d="M42.654 8.966c-0.246-5.028-4.101-8.966-8.775-8.966h-25.093c-4.674 0-8.528 3.938-8.774 8.966-0.008 0.166-0.013 18.706-0.013 18.706 0 2.386 1.8 4.327 4.013 4.327h34.641c2.213 0 4.013-1.941 4.013-4.327 0 0-0.004-18.539-0.012-18.706zM8.787 2h25.093c3.354 0 6.173 2.57 6.802 6.019h-1.908c-0.598-2.36-2.577-4.019-4.893-4.019h-12.152c-0.512 0 0.928 0.448 0.928 1s-1.44 1-0.928 1h12.152c1.29 0 2.414 0.81 2.927 2.019h-0.923c-2.313 0-4.21 1.958-4.34 4.418-3.242-1.103-6.726-1.655-10.21-1.655s-6.968 0.552-10.21 1.655c-0.13-2.46-2.027-4.417-4.341-4.417h-0.923c0.513-1.209 1.638-2.019 2.927-2.019h12.941c0.512 0 0.928-0.448 0.928-1s-0.415-1-0.928-1h-12.941c-2.317 0-4.296 1.659-4.893 4.019h-1.907c0.628-3.449 3.447-6.019 6.801-6.019zM31.536 14.538v3.396c0 1.482-1.118 2.687-2.493 2.687h-15.42c-1.374 0-2.492-1.205-2.492-2.687v-3.396c6.438-2.347 13.967-2.347 20.406 0zM40.812 27.673c0 1.283-0.968 2.327-2.158 2.327h-34.641c-1.19 0-2.157-1.044-2.157-2.327v-17.654h4.927c1.375 0 2.493 1.205 2.493 2.687v5.228c0 2.585 1.95 4.687 4.347 4.687h16.854c1.067 0 2.915-1.264 2.915-4.687v-5.228c0-1.482 1.118-2.687 2.492-2.687h4.928l0 17.654z"></path>
</symbol>
<symbol id="icon-claw-point" viewBox="0 0 28 32">
<path d="M26.455 27.224h-8.662v-22.447h3.389v8.879c-1.018 0.237-1.783 1.198-1.783 2.344 0 1.324 1.019 2.401 2.271 2.401s2.271-1.077 2.271-2.401c0-1.147-0.764-2.108-1.783-2.344v-8.879h2.977c0.852 0 1.545-0.733 1.545-1.633v-1.51c0-0.9-0.693-1.633-1.545-1.633h-22.27c-0.852 0-1.545 0.733-1.545 1.633v1.51c0 0.9 0.693 1.633 1.545 1.633h7.342v22.448h-8.662c-0.852 0-1.545 0.732-1.545 1.633v1.51c0 0.901 0.693 1.633 1.545 1.633h24.911c0.852 0 1.545-0.733 1.545-1.633v-1.51c0-0.9-0.693-1.633-1.545-1.633zM22.965 16c0 0.755-0.581 1.369-1.295 1.369s-1.295-0.614-1.295-1.369c0-0.755 0.581-1.369 1.295-1.369s1.295 0.614 1.295 1.369zM2.865 3.143v-1.51c0-0.331 0.478-0.445 0.791-0.445h21.151c0.313 0 0.568 0.114 0.568 0.445v1.51c0 0.331-0.255 0.419-0.568 0.419h-21.151c-0.313 0-0.791-0.088-0.791-0.419zM11.469 23.56h0.547c0 0 0.488-0.231 0.488-0.516s-0.219-0.516-0.488-0.516h-0.547v-3.664h5.151c0.27 0 1.919-0.293 0.623-0.578 1.296-0.285-0.354-0.454-0.623-0.454h-5.151v-3.664h4.516c0.27 0-0.488-0.231-0.488-0.516s0.758-0.516 0.488-0.516h-4.516v-8.36l5.151-0v3.664h-5.577c-0.27 0 0-0.054 0 0.231 0 0.801-0.285 0.801-0.285 0.801l5.863-0v3.664l-0.636 0c-0.27 0-0.488 0.231-0.488 0.516s0.219 0.516 0.488 0.516l0.636-0v8.36h-4.604c-0.27 0 0.488 0.231 0.488 0.516s-0.758 0.516-0.488 0.516h4.604v3.664l-5.151 0v-3.664zM26.806 30.367c0 0.331-0.493 0.414-0.806 0.414h-24.182c-0.313 0-0.568-0.083-0.568-0.414v-1.51c0-0.331 0.255-0.419 0.568-0.419h24.419c0.313 0 0.568 0.088 0.568 0.419l0 1.51z"></path>
</symbol>
<symbol id="icon-clew" viewBox="0 0 32 32">
<path d="M29.055 26.108h-8.073c4.182-2.422 7.001-6.946 7.001-12.117 0-7.715-6.277-13.992-13.992-13.992s-13.992 6.277-13.992 13.992c0 7.715 6.277 13.992 13.992 13.992h15.063c0.59 0 1.070 0.48 1.070 1.072s-0.478 1.070-1.070 1.070h-13.055c-0.518 0-0.938 0.42-0.938 0.937s0.42 0.938 0.938 0.938h13.055c1.61 0 2.945-1.3 2.945-2.947 0-1.624-1.321-2.945-2.945-2.945zM13.992 26.108c-0.524 0-1.041-0.034-1.548-0.099l10.245-5.915 1.293 0.746c-2.186 3.179-5.848 5.267-9.989 5.267zM7.196 24.018l11.144-6.434 2.473 1.428-11.002 6.352c-0.93-0.343-1.807-0.797-2.615-1.346zM6.233 4.693c0.753-0.629 1.583-1.169 2.473-1.603v12.871l-2.473 1.428v-12.696zM10.581 2.365c0.794-0.233 1.621-0.388 2.473-0.454v11.539l-2.473 1.428v-12.514zM26.108 13.992c0 0.294-0.011 0.585-0.032 0.874l-11.147-6.436v-2.856l11.002 6.352c0.116 0.672 0.177 1.362 0.177 2.066zM14.929 10.595l10.837 6.257c-0.2 0.825-0.485 1.618-0.845 2.368l-9.992-5.769v-2.856zM25.172 9.323l-10.243-5.914v-1.498c4.622 0.355 8.526 3.316 10.243 7.412zM4.358 6.652v11.819l-1.296 0.748c-0.76-1.584-1.187-3.357-1.187-5.228 0-2.757 0.926-5.301 2.483-7.339zM4.003 20.841l9.989-5.767 2.473 1.428-10.832 6.254c-0.607-0.579-1.154-1.221-1.63-1.914z"></path>
</symbol>
<symbol id="icon-house" viewBox="0 0 32 32">
<path d="M31.725 14.333l-13.348-13.348c-0.635-0.635-1.479-0.985-2.377-0.985s-1.743 0.35-2.377 0.985l-13.348 13.348c-0.176 0.176-0.275 0.414-0.275 0.663s0.099 0.487 0.275 0.663c0 0 0.451 0.451 1.004 1.004 1.061 1.061 2.522 1.312 3.742 0.953v13.447c0 0.518 0.42 0.938 0.938 0.938h20.083c0.518 0 0.937-0.42 0.937-0.938v-13.447c1.219 0.359 2.681 0.108 3.742-0.953 0.553-0.553 1.004-1.004 1.004-1.004 0.176-0.176 0.275-0.414 0.275-0.663s-0.099-0.487-0.275-0.663zM25.104 16.388v9.72h-4.15v-6.092c0-2.736-2.213-4.954-4.954-4.954-2.737 0-4.954 2.213-4.954 4.954v6.092h-4.15v-9.72l9.104-9.104 9.104 9.104zM6.896 27.983h4.15v2.142h-4.15v-2.142zM12.921 30.125v-10.108c0-1.697 1.372-3.079 3.079-3.079 1.701 0 3.079 1.375 3.079 3.079v10.108h-6.158zM20.954 30.125v-2.142h4.15v2.142h-4.15zM29.395 15.337c-0.742 0.743-1.946 0.744-2.69 0-0.006-0.006-0.012-0.012-0.018-0.018l-10.024-10.024c-0.366-0.366-0.96-0.366-1.326 0l-10.024 10.024c-0.006 0.006-0.012 0.012-0.018 0.018-0.743 0.743-1.946 0.744-2.69 0-0.12-0.12-0.235-0.235-0.341-0.342l12.686-12.686c0.579-0.58 1.521-0.581 2.102 0l12.685 12.685c-0.107 0.107-0.222 0.222-0.342 0.342z"></path>
</symbol>
<symbol id="icon-cheveron-down" viewBox="0 0 56 32">
<path stroke-linejoin="round" stroke-linecap="round" stroke-miterlimit="4" stroke-width="8" d="M4 4l24 24 24-24"></path>
</symbol>
<symbol id="icon-down-arrow" viewBox="0 0 19 32">
<path stroke-linejoin="round" stroke-linecap="round" stroke-miterlimit="4" stroke-width="2.6667" d="M9.333 29.333l6.667-6.274M9.333 29.333l-6.667-6.274M9.333 29.333v-26.667"></path>
</symbol>
<symbol id="icon-up-arrow" viewBox="0 0 19 32">
<path stroke-linejoin="round" stroke-linecap="round" stroke-miterlimit="4" stroke-width="2.6667" d="M9.333 2.667l-6.667 6.274M9.333 2.667l6.667 6.274M9.333 2.667v26.667"></path>
</symbol>
<symbol id="icon-check" viewBox="0 0 44 32">
<path stroke-linejoin="round" stroke-linecap="round" stroke-miterlimit="4" stroke-width="4" d="M4 13l13.846 15 22.154-24"></path>
</symbol>
<symbol id="icon-empty-room" viewBox="0 0 32 32">
<path d="M32 16c0 4.274-1.664 8.292-4.686 11.314s-7.040 4.686-11.314 4.686c-2.992 0-5.858-0.817-8.345-2.343l1.834-1.834c1.932 1.068 4.151 1.677 6.511 1.677 7.444 0 13.5-6.056 13.5-13.5 0-2.359-0.609-4.579-1.677-6.51l1.834-1.834c1.526 2.487 2.343 5.353 2.343 8.345zM1.821 31.946l-1.768-1.768 3.783-3.783c-2.482-2.895-3.837-6.541-3.837-10.396 0-4.274 1.664-8.292 4.686-11.314s7.040-4.686 11.314-4.686c3.854 0 7.5 1.354 10.396 3.837l3.783-3.783 1.768 1.768-30.125 30.125zM5.616 24.616l19.001-19.001c-2.339-1.945-5.344-3.116-8.616-3.116-7.444 0-13.5 6.056-13.5 13.5 0 3.273 1.171 6.277 3.116 8.616z"></path>
</symbol>
<symbol id="icon-instagram" viewBox="0 0 32 32">
<path d="M20.8 16c0 2.651-2.149 4.8-4.8 4.8s-4.8-2.149-4.8-4.8c0-0.274 0.029-0.541 0.078-0.8h-1.678v6.395c0 0.445 0.36 0.805 0.805 0.805h11.192c0.443 0 0.803-0.36 0.803-0.805v-6.395h-1.678c0.050 0.259 0.078 0.526 0.078 0.8zM16 19.2c1.766 0 3.2-1.434 3.2-3.2s-1.434-3.2-3.2-3.2-3.2 1.434-3.2 3.2 1.434 3.2 3.2 3.2zM19.84 12.64h1.918c0.266 0 0.482-0.216 0.482-0.48v-1.918c0-0.266-0.216-0.482-0.482-0.482h-1.918c-0.266 0-0.482 0.216-0.482 0.482v1.918c0.002 0.264 0.218 0.48 0.482 0.48zM16 0.64c-8.483 0-15.36 6.877-15.36 15.36s6.877 15.36 15.36 15.36c8.483 0 15.36-6.877 15.36-15.36s-6.877-15.36-15.36-15.36zM24 22.222c0 0.978-0.8 1.778-1.778 1.778h-12.445c-0.978 0-1.778-0.8-1.778-1.778v-12.445c0-0.978 0.8-1.778 1.778-1.778h12.445c0.978 0 1.778 0.8 1.778 1.778v12.445z"></path>
</symbol>
<symbol id="icon-vk" viewBox="0 0 32 32">
<path d="M16 0.64c-8.483 0-15.36 6.877-15.36 15.36s6.877 15.36 15.36 15.36 15.36-6.877 15.36-15.36-6.877-15.36-15.36-15.36zM21.907 17.97c0 0 1.358 1.341 1.693 1.963 0.010 0.013 0.014 0.026 0.018 0.032 0.136 0.229 0.168 0.406 0.101 0.539-0.112 0.221-0.496 0.33-0.627 0.339 0 0-2.333 0-2.4 0-0.166 0-0.515-0.043-0.938-0.334-0.325-0.227-0.645-0.6-0.957-0.963-0.466-0.541-0.869-1.008-1.275-1.008-0.051 0-0.104 0.008-0.152 0.024-0.307 0.099-0.701 0.538-0.701 1.706 0 0.365-0.288 0.574-0.491 0.574 0 0-1.048 0-1.099 0-0.374 0-2.325-0.131-4.053-1.954-2.115-2.232-4.019-6.709-4.035-6.75-0.12-0.29 0.128-0.445 0.398-0.445h2.424c0.323 0 0.429 0.197 0.502 0.371 0.086 0.203 0.403 1.011 0.923 1.92 0.843 1.482 1.36 2.083 1.774 2.083 0.078 0 0.15-0.021 0.222-0.058 0.541-0.301 0.44-2.229 0.416-2.629 0-0.075-0.002-0.862-0.278-1.24-0.198-0.274-0.536-0.378-0.741-0.416 0.053-0.078 0.171-0.198 0.318-0.27 0.371-0.186 1.040-0.213 1.704-0.213h0.37c0.72 0.010 0.906 0.056 1.166 0.122 0.528 0.126 0.539 0.467 0.493 1.634-0.014 0.331-0.029 0.706-0.029 1.147 0 0.096-0.005 0.198-0.005 0.307-0.016 0.594-0.035 1.267 0.384 1.544 0.054 0.034 0.117 0.053 0.182 0.053 0.146 0 0.584 0 1.771-2.037 0.52-0.899 0.923-1.96 0.952-2.038 0.024-0.042 0.094-0.17 0.178-0.219 0.066-0.038 0.154-0.046 0.198-0.046h2.85c0.31 0 0.523 0.046 0.563 0.166 0.070 0.19-0.013 0.771-1.314 2.533-0.219 0.291-0.413 0.546-0.581 0.766-1.179 1.546-1.179 1.624 0.074 2.797z"></path>
</symbol>
</defs>
</svg>
